<svg width="63" height="58" viewBox="0 0 63 58" fill="none" xmlns="http://www.w3.org/2000/svg">
<path d="M60.667 32.7334L60.467 32.2L59.9337 32.3333C58.9337 32.6 57.867 32.8 56.867 33C56.667 32.4 56.467 31.9333 56.267 31.4667L56.067 30.9333L55.5337 31.0667C47.4003 33.2667 39.067 34.4 30.7337 34.3333C22.9337 34.2667 15.067 33.2 7.40033 31.0667L6.867 30.9333L6.667 31.4667C6.40033 32.0667 6.06699 32.8 5.80033 33.6667C4.66699 33.4667 3.53366 33.2667 2.46699 33.0667L1.867 32.9333L1.667 33.4667C0.933662 35.8 0.53366 38.2667 0.466993 40.7333C0.400326 43.4 0.866995 46.0667 1.667 48.6L1.867 49.1334L2.40033 49C3.53367 48.8 4.73366 48.6 5.867 48.4C6.13366 49.1333 6.40033 49.8 6.60033 50.2667L6.80033 50.8L7.33366 50.6667C12.867 49.1334 18.467 48.1334 24.1337 47.6667L21.1337 54.8667L23.0003 53.4667C23.267 53.2667 23.6003 52.9334 23.9337 52.6C24.7337 51.8 25.6003 50.8667 26.6003 51.1334C27.667 51.4 27.867 52.2667 28.267 53.8667C28.3337 54.1334 28.4003 54.4 28.467 54.6667L29.2003 57.4L30.9337 48.2667L32.3337 55.9334L33.1337 53.4667C33.2003 53.2 33.267 53 33.3337 52.7334C33.8003 51.2667 34.067 50.4667 35.1337 50.2C36.067 49.9334 36.9337 50.7334 37.7337 51.4667C38.067 51.7334 38.3337 52 38.6003 52.2L40.4003 53.4L37.9337 47.5334C43.867 47.9334 49.7337 49 55.5337 50.5334L56.067 50.6667L56.267 50.1334C56.467 49.6667 56.7337 49.0667 57.0003 48.3334C58.0003 48.5334 59.0003 48.6667 60.067 48.8667L60.6003 49L60.8003 48.4667C61.8003 45.8 62.267 43 62.2003 40.0667C62.0003 37.6667 61.5337 35.1334 60.667 32.7334ZM2.667 47.7333C2.00033 45.4667 1.667 43.1334 1.73367 40.8C1.73367 38.6667 2.067 36.5333 2.667 34.4667C3.53366 34.6667 4.467 34.8 5.33366 34.9334C4.93366 36.4 4.66699 38.1333 4.60032 40.0667C4.46699 42.9333 4.93366 45.3334 5.46699 47.2667C4.46699 47.4 3.53366 47.5333 2.667 47.7333ZM30.0003 35.7333H31.7337V36.6667C31.467 36.6 31.2003 36.6 30.867 36.6C30.5337 36.6 30.267 36.6 30.0003 36.6667V35.7333ZM7.46699 49.2667C6.73366 47.4667 5.66699 44.2 5.80033 40.0667C5.93366 36.8 6.73366 34.2 7.46699 32.4667C14.467 34.3333 21.6003 35.3334 28.667 35.5334V37.0667C27.4003 37.8 26.467 39.2 26.467 40.8C26.467 41.0667 26.467 41.3334 26.5337 41.5334L24.6003 46.2667C18.867 46.8 13.1337 47.8 7.46699 49.2667ZM28.9337 51.8C28.5337 50.9334 28.0003 50.2667 26.867 49.9334C26.6003 49.8667 26.4003 49.8667 26.2003 49.8667C25.5337 49.8667 24.867 50.1334 24.3337 50.5334L27.3337 43.3334C28.0003 44.2667 29.0003 44.9334 30.2003 45.1334L28.9337 51.8ZM30.867 43.9334C29.2003 43.9334 27.867 42.6 27.867 40.9334C27.867 39.2667 29.2003 37.9334 30.867 37.9334C32.5337 37.9334 33.867 39.2667 33.867 40.9334C33.9337 42.6 32.5337 43.9334 30.867 43.9334ZM34.7337 49.0667C33.667 49.4 33.067 50 32.667 50.8L31.667 45.1334C32.867 44.9334 33.9337 44.2 34.5337 43.2L37.267 49.5334C36.5337 49.1334 35.7337 48.8 34.7337 49.0667ZM55.2003 49.2667C49.267 47.6667 43.267 46.6667 37.267 46.2667L35.2003 41.3333C35.2003 41.2 35.2003 41 35.2003 40.8C35.2003 39.2 34.3337 37.8 33.0003 37.0667V35.5334C40.467 35.4 47.9337 34.3334 55.2003 32.4C55.9337 34.0667 56.667 36.6667 56.8003 39.8C57.067 44.1334 56.0003 47.4667 55.2003 49.2667ZM59.6003 47.7333C58.8003 47.6 58.067 47.4667 57.267 47.3334C57.8003 45.4 58.267 42.8667 58.1337 39.9334C58.067 37.7334 57.667 35.8 57.2003 34.2667C58.0003 34.1333 58.8003 33.9334 59.6003 33.7334C60.3337 35.8667 60.667 38.0667 60.7337 40.3333C60.8003 42.8 60.4003 45.3333 59.6003 47.7333Z" fill="#E3AB50"/>
<path d="M56.0005 11L53.4005 9.86667L31.4005 0.466667C30.6671 0.133333 29.9338 0 29.1338 0C28.3338 0 27.6005 0.133333 26.8671 0.466667L2.20046 10.9333C1.53379 11.2 1.13379 11.8667 1.13379 12.5333C1.13379 13.2667 1.53379 13.8667 2.20046 14.1333L13.2671 18.8667V22.2C13.2671 23.4667 14.8671 24.3333 18.3338 24.9333C21.2005 25.4667 25.0671 25.8 29.1338 25.8C33.2005 25.8 37.0671 25.5333 39.9338 24.9333C43.4005 24.2667 45.0005 23.4 45.0005 22.2V18.8667L52.3338 15.7333V18.1333C51.5338 18.4667 50.9338 19.2667 50.9338 20.2C50.9338 20.8 51.2005 21.4 51.6005 21.8C50.8005 22.9333 50.4005 24.9333 50.4005 26.8667C50.4005 27.0667 50.4671 27.2667 50.6005 27.4C50.7338 27.5333 50.9338 27.6667 51.1338 27.6667H55.0671C55.2671 27.6667 55.4671 27.6 55.6005 27.4C55.7338 27.2667 55.8005 27.0667 55.8005 26.8667C55.8005 24.9333 55.4005 22.9333 54.6005 21.8C55.0005 21.4 55.2671 20.8667 55.2671 20.2C55.2671 19.2667 54.6671 18.4667 53.8671 18.1333V15L56.0005 14.0667C56.6671 13.8 57.0671 13.1333 57.0671 12.4667C57.1338 11.9333 56.6671 11.3333 56.0005 11ZM53.1338 19.7333C53.4671 19.7333 53.7338 20 53.7338 20.3333C53.7338 20.6667 53.4671 20.9333 53.1338 20.9333C52.8005 20.9333 52.5338 20.6667 52.5338 20.3333C52.4671 20 52.7338 19.7333 53.1338 19.7333ZM39.0671 23.6C36.3338 24.0667 32.8005 24.3333 29.1338 24.3333C25.4671 24.3333 21.8671 24.0667 19.2005 23.6C16.1338 23.0667 15.2005 22.5333 15.0005 22.2667C15.2671 22.0667 16.2005 21.4667 19.2005 20.9333C21.9338 20.4667 25.4671 20.2 29.1338 20.2C32.8005 20.2 36.4005 20.4667 39.0671 20.9333C42.1338 21.4667 43.0671 22 43.2671 22.2667C43.0671 22.5333 42.1338 23.0667 39.0671 23.6ZM43.4005 20.5333C42.6005 20.1333 41.4005 19.8 39.9338 19.5333C37.0671 19 33.2005 18.6667 29.1338 18.6667C25.0671 18.6667 21.2005 18.9333 18.3338 19.5333C16.8671 19.8 15.6671 20.1333 14.8671 20.5333V14.1333C15.0005 14 15.7338 13.3333 19.2005 12.7333C21.9338 12.2667 25.4671 12 29.1338 12C32.8005 12 36.4005 12.2667 39.0671 12.7333C42.5338 13.3333 43.2671 14 43.4005 14.1333V20.5333ZM45.0005 17.2667V14.0667C45.0005 12.8 43.4005 11.9333 39.9338 11.3333C37.0671 10.8 33.2005 10.4667 29.1338 10.4667C25.0671 10.4667 21.2005 10.7333 18.3338 11.3333C14.8671 12 13.2671 12.8667 13.2671 14.0667V17.2667L2.80046 12.8C2.73379 12.8 2.66712 12.7333 2.66712 12.6667C2.66712 12.6 2.73379 12.5333 2.80046 12.5333L27.4671 2.06667C28.0005 1.86667 28.5338 1.73333 29.1338 1.73333C29.7338 1.73333 30.2671 1.86667 30.8005 2.06667L52.3338 11.2667V14.2L45.0005 17.2667ZM54.2671 26.2H52.0005C52.1338 23.8667 52.8671 22.6667 53.1338 22.6C53.4005 22.6667 54.1338 23.8667 54.2671 26.2ZM55.4005 12.8L53.8671 13.4667V11.8667L55.4005 12.5333C55.4671 12.5333 55.5338 12.6 55.5338 12.6667C55.5338 12.7333 55.4671 12.8 55.4005 12.8Z" fill="#E3AB50"/>
</svg>
