<svg width="58" height="54" viewBox="0 0 58 54" fill="none" xmlns="http://www.w3.org/2000/svg">
<path d="M29.7468 35.5999C27.4802 35.5999 25.6135 33.7333 25.6135 31.4666C25.6135 29.1999 27.4802 27.3333 29.7468 27.3333C32.0135 27.3333 33.8802 29.1999 33.8802 31.4666C33.8802 33.7333 32.0135 35.5999 29.7468 35.5999ZM29.7468 29.1332C28.4802 29.1332 27.4135 30.1999 27.4135 31.4666C27.4135 32.7333 28.4802 33.7999 29.7468 33.7999C31.0135 33.7999 32.0802 32.7333 32.0802 31.4666C32.0802 30.1999 31.0802 29.1332 29.7468 29.1332Z" fill="#0E2043"/>
<path d="M46.8802 12.2667C43.4802 12.2667 40.7468 9.53333 40.7468 6.13333C40.7468 2.73333 43.4802 0 46.8802 0C50.2802 0 53.0135 2.73333 53.0135 6.13333C53.0135 9.53333 50.2802 12.2667 46.8802 12.2667ZM46.8802 1.73333C44.4802 1.73333 42.5469 3.66667 42.5469 6.06667C42.5469 8.46667 44.4802 10.4 46.8802 10.4C49.2802 10.4 51.2135 8.46667 51.2135 6.06667C51.2135 3.73333 49.2802 1.73333 46.8802 1.73333Z" fill="#0E2043"/>
<path d="M11.7468 12.2667C8.34683 12.2667 5.61353 9.53333 5.61353 6.13333C5.61353 2.73333 8.34683 0 11.7468 0C15.1468 0 17.8802 2.73333 17.8802 6.13333C17.8802 9.53333 15.1468 12.2667 11.7468 12.2667ZM11.7468 1.73333C9.34683 1.73333 7.41349 3.66667 7.41349 6.06667C7.41349 8.46667 9.34683 10.4 11.7468 10.4C14.1468 10.4 16.0802 8.46667 16.0802 6.06667C16.0802 3.73333 14.1468 1.73333 11.7468 1.73333Z" fill="#0E2043"/>
<path d="M53.2802 35.7999C52.8135 35.7999 52.4135 35.3999 52.4135 34.9333C52.4135 34.4666 52.8135 34.0666 53.2802 34.0666C55.4135 34.0666 55.4802 31.9333 55.4802 31.8666V16.8666C55.4802 14.7333 53.4802 13.7999 51.8802 13.3999L48.0135 12.5999H45.4802L41.8136 13.3999C40.1469 13.7999 38.2135 14.7999 38.2135 16.8666V30.1333C38.2135 30.5999 37.8135 30.9999 37.3468 30.9999C36.8802 30.9999 36.4802 30.5999 36.4802 30.1333V16.8666C36.4802 14.3333 38.2802 12.5333 41.4802 11.6666L45.4135 10.7999H48.2802L52.2802 11.5999C55.4802 12.3333 57.3468 14.1999 57.3468 16.7999V31.7999C57.2802 33.3333 56.2135 35.7999 53.2802 35.7999Z" fill="#0E2043"/>
<path d="M29.7468 38.5999C23.0135 38.5999 21.7468 32.8666 21.4135 30.9333C21.3468 30.7333 21.3468 30.5999 21.3468 30.4666C21.2135 29.8666 20.2802 26.6666 19.3468 23.3333C18.2135 19.3333 17.0136 15.1333 16.8136 14.2666C16.4802 13.8666 14.6802 13.0666 12.8136 12.5333H10.4135C9.4135 12.8666 7.0802 13.7333 5.94686 14.4666C5.34686 15.5999 3.68018 23.0666 3.01351 26.3333C2.74685 27.6666 2.48016 28.6666 2.4135 29.0666C2.14683 30.0666 2.48021 30.3999 2.54688 30.5333C3.08021 31.1999 4.28016 31.3333 4.74683 31.3333C5.2135 31.3333 5.61353 31.7333 5.61353 32.1999C5.61353 32.6666 5.2135 33.1333 4.74683 33.1333C4.48016 33.1333 2.2135 33.1333 1.08016 31.6666C0.680164 31.1333 0.21353 30.1333 0.61353 28.5999C0.680197 28.2666 0.94688 27.1999 1.21355 25.9333C3.74688 14.3999 4.21356 13.3999 4.81356 13.0666C6.41356 11.9333 9.81353 10.8666 9.94686 10.7999L10.0802 10.7333H13.1469C14.9469 11.1999 18.0802 12.2666 18.4802 13.6666C18.6802 14.3999 19.9468 18.8666 21.0135 22.7999C21.9468 26.1333 22.8802 29.3333 23.0135 29.9999C23.0802 30.1333 23.0802 30.3333 23.1469 30.5333C23.8136 33.5999 25.0802 36.7333 29.7468 36.7333C33.4135 36.7333 36.4135 33.7333 36.4135 30.0666C36.4135 29.5999 36.8135 29.1999 37.2802 29.1999C37.7469 29.1999 38.1469 29.5999 38.1469 30.0666C38.2802 34.7999 34.4135 38.5999 29.7468 38.5999Z" fill="#0E2043"/>
<path d="M52.6802 53.4667H41.0802C40.3468 53.4667 39.7468 52.8667 39.7468 52.1333V17.8667C39.7468 17.4 40.1469 17 40.6135 17C41.0802 17 41.4802 17.4 41.4802 17.8667V51.7333H52.1469V17.8667C52.1469 17.4 52.5468 17 53.0135 17C53.4802 17 53.8802 17.4 53.8802 17.8667V52.2C54.0135 52.8667 53.4135 53.4667 52.6802 53.4667Z" fill="#0E2043"/>
<path d="M46.8801 53.0666C46.4135 53.0666 46.0134 52.6666 46.0134 52.1999V32.6666C46.0134 32.1999 46.4135 31.7999 46.8801 31.7999C47.3468 31.7999 47.7467 32.1999 47.7467 32.6666V52.1333C47.8134 52.6666 47.4135 53.0666 46.8801 53.0666Z" fill="#0E2043"/>
<path d="M33.1467 53.6H26.4133C25.68 53.6 25.1467 53 25.1467 52.3333V36.6666H26.9467V51.8H32.68V36.6666H34.4801V52.3333C34.4134 53 33.8134 53.6 33.1467 53.6Z" fill="#0E2043"/>
<path d="M29.7467 53.4666C29.2801 53.4666 28.8801 53.0666 28.8801 52.6V47.0666C28.8801 46.6 29.2801 46.2 29.7467 46.2C30.2134 46.2 30.6134 46.6 30.6134 47.0666V52.6C30.6801 53.0666 30.2801 53.4666 29.7467 53.4666Z" fill="#0E2043"/>
<path d="M21.6134 42.4H1.88013L6.61344 17.1333C6.68011 16.6666 7.21343 16.3333 7.68009 16.4C8.14676 16.4666 8.48008 16.9333 8.41341 17.4666L4.08008 40.6H19.4134L14.6801 17.5333C14.5468 17.0666 14.8801 16.6 15.3468 16.4666C15.8134 16.3333 16.2801 16.6666 16.4134 17.1333L21.6134 42.4Z" fill="#0E2043"/>
<path d="M15.9468 53.8666H7.54679L6.08008 40.7333H17.3468L15.9468 53.8666ZM9.14681 52.0666H14.2801L15.3468 42.5333H8.08008L9.14681 52.0666Z" fill="#0E2043"/>
<path d="M11.9468 53.4666C11.4801 53.4666 11.0801 53.0666 11.0801 52.5999V47.3332C11.0801 46.8666 11.4801 46.4666 11.9468 46.4666C12.4134 46.4666 12.8135 46.8666 12.8135 47.3332V52.5999C12.8135 53.0666 12.4134 53.4666 11.9468 53.4666Z" fill="#0E2043"/>
</svg>
