<svg width="51" height="53" viewBox="0 0 51 53" fill="none" xmlns="http://www.w3.org/2000/svg">
<path d="M49.8167 33.6666C48.6167 31.9333 46.2833 31.4 44.4833 32.6L39.8833 35.6666C39.4167 35.9333 39.35 36.5333 39.6167 37C39.8833 37.4666 40.4833 37.5333 40.95 37.2666L45.55 34.1333C46.4167 33.5333 47.6167 33.8 48.2167 34.6666C48.8167 35.5333 48.55 36.7333 47.6833 37.3333L33.75 46.6666C33.6166 46.8 33.4167 46.8666 33.2833 46.9333C33.0167 47 32.75 47.0666 32.4833 47L19.0167 43.1333C18.95 43.1333 18.95 43.1333 18.8833 43.1333C17.8833 42.9333 16.8833 43.1333 16.0833 43.7333L15.2833 44.2666L10.0833 36.5333L16.2833 32.3333C17.2167 31.7333 18.2833 31.5333 19.35 31.7333L33.8167 36.4C34.8167 36.7333 35.4166 37.8 35.0833 38.8C34.95 39.2666 34.6167 39.6666 34.15 39.9333C33.6833 40.2 33.15 40.2 32.6833 40.0666L25.6167 38.2C25.0833 38.0666 24.6167 38.4 24.4833 38.8666C24.4167 39.1333 24.4833 39.4 24.6167 39.6666C24.75 39.8666 24.95 40 25.15 40.0666L32.2167 41.9333C33.2167 42.2 34.2166 42.1333 35.0833 41.6666C36.0166 41.2 36.6167 40.4 36.95 39.4C37.55 37.4 36.4166 35.2666 34.4166 34.6666L19.95 30C19.8833 30 19.8167 29.9333 19.8167 29.9333C18.2167 29.6 16.6167 29.9333 15.2833 30.8666L9.08331 35.0666L8.54998 34.2666C8.28332 33.8 7.68331 33.7333 7.21665 34L0.883314 38.2666C0.416648 38.5333 0.350005 39.1333 0.616672 39.6L5.81666 47.4C6.08333 47.8666 6.68333 47.9333 7.15 47.6666C7.61666 47.4 7.68331 46.8 7.41664 46.3333L2.74997 39.3333L7.54998 36.1333L14.8833 47.1333L10.0833 50.3333L9.88332 50C9.61665 49.5333 9.01665 49.4666 8.54998 49.7333C8.08332 50 8.01667 50.6 8.28334 51.0666L9.01666 52.2C9.28332 52.6666 9.88332 52.7333 10.35 52.4666L16.6833 48.2C17.15 47.9333 17.2167 47.3333 16.95 46.8666L16.4166 46L17.2167 45.4666C17.6167 45.2 18.15 45.0666 18.6167 45.2L32.0833 49.0666H32.15C32.15 49.0666 32.15 49.0666 32.2167 49.0666C32.8167 49.1333 33.4167 49.1333 33.95 48.9333C34.2833 48.8 34.6167 48.6666 34.95 48.4666L48.8833 39.1333C50.55 37.8666 51.0167 35.4666 49.8167 33.6666Z" fill="#0E2043"/>
<path d="M36.9498 14.2666C36.8165 14.2 36.0165 13.7333 34.7498 13.5333H34.6831V8.73331H34.7498C35.2165 8.86664 35.6831 9.06664 36.0831 9.39998C36.6165 9.86664 36.9498 10.4666 36.9498 11.0666C36.9498 11.6 37.4165 12 37.9498 12C38.4832 12 38.8831 11.5333 38.8831 11C38.8831 9.79998 38.2832 8.66664 37.2832 7.86664C36.6165 7.26664 35.7498 6.93331 34.8165 6.73331H34.7498V5.53331C34.7498 4.99998 34.2831 4.59998 33.7498 4.59998C33.2165 4.59998 32.8165 5.06664 32.8165 5.59998V6.79998H32.7498C31.8165 6.99998 30.9498 7.39998 30.2832 7.99998C29.2832 8.86664 28.8165 9.99998 28.8165 11.2C28.8165 12.4 29.3498 13.4666 30.3498 14.2666C30.9498 14.7333 31.6831 15.0666 32.7498 15.2H32.8165V21.0666H32.7498C32.0831 20.8666 31.4831 20.5333 31.0831 20.0666C30.6831 19.6 30.4165 19 30.4165 18.4C30.4165 17.8666 29.9498 17.4666 29.4165 17.4666C29.1498 17.4666 28.9498 17.6 28.7498 17.7333C28.5498 17.9333 28.4832 18.1333 28.4832 18.4C28.4832 19.0666 28.6832 19.7333 28.9498 20.3333C29.2165 20.9333 29.6831 21.4 30.2165 21.8666C30.9498 22.4666 31.7498 22.8666 32.6831 23H32.7498V24.2C32.7498 24.7333 33.2165 25.1333 33.6831 25.1333C33.9498 25.1333 34.1498 25 34.3498 24.8666C34.5498 24.6666 34.6165 24.4666 34.6165 24.2V23.0666H34.6831C35.8831 22.9333 36.9498 22.4666 37.8165 21.6666C38.3498 21.2 38.7498 20.6666 39.0165 20.1333C39.2831 19.5333 39.4831 18.8666 39.4165 18.2C39.4831 16.6666 38.5498 15.1333 36.9498 14.2666ZM34.7498 21.1333H34.6831V15.4666H34.7498C35.5498 15.6666 35.9498 15.9333 36.0165 15.9333C36.9498 16.4666 37.5498 17.3333 37.5498 18.2666C37.6165 19.6666 36.4165 20.8666 34.7498 21.1333ZM32.8165 8.79998V13.2666H32.7498C32.2165 13.1333 31.8832 13 31.6165 12.8C31.0832 12.3333 30.8165 11.8 30.8165 11.1333C30.8165 10.5333 31.0832 9.93331 31.6165 9.39998C31.9498 9.13331 32.3498 8.86664 32.7498 8.73331L32.8165 8.79998Z" fill="#0E2043"/>
<path d="M47.7499 9.13333C47.0166 7.33333 45.9499 5.73333 44.5499 4.4C43.1499 3 41.6166 1.93333 39.8166 1.2C37.9499 0.4 36.0166 0 34.0166 0C32.0166 0 30.0166 0.4 28.2166 1.2C26.4166 1.93333 24.8166 3 23.4833 4.4C22.0833 5.8 21.0166 7.33333 20.2833 9.13333C19.4833 11 19.0833 12.9333 19.0833 14.9333C19.0833 16.9333 19.4833 18.9333 20.2833 20.7333C21.0166 22.5333 22.0833 24.1333 23.4833 25.4667C24.8833 26.8 26.4166 27.9333 28.2166 28.6667C30.0833 29.4667 32.0166 29.8667 34.0166 29.8667C36.0166 29.8667 38.0166 29.4667 39.8166 28.6667C41.6166 27.9333 43.2166 26.8667 44.5499 25.4667C45.9499 24.0667 47.0166 22.5333 47.7499 20.7333C48.5499 18.8667 48.95 16.9333 48.95 14.9333C48.95 12.9333 48.5499 10.9333 47.7499 9.13333ZM47.0833 14.9333C47.0833 22.1333 41.2166 28 34.0166 28C26.8166 28 20.95 22.1333 20.95 14.9333C20.95 7.73333 26.8166 1.86667 34.0166 1.86667C41.2166 1.86667 47.0833 7.73333 47.0833 14.9333Z" fill="#0E2043"/>
</svg>
