<svg width="54" height="54" viewBox="0 0 54 54" fill="none" xmlns="http://www.w3.org/2000/svg">
<path d="M29.4607 48.5333C29.5274 48.4 29.594 48.3333 29.7273 48.2C29.794 47.9333 29.994 47.6667 30.2607 47.4667C30.394 47.4 30.4607 47.2667 30.594 47.1333C30.7274 47 30.794 46.8667 30.9274 46.8H6.86068C4.32734 46.8 2.19401 44.7333 2.19401 42.1333C2.19401 39.5333 4.26068 37.4667 6.86068 37.4667C7.39401 37.4667 7.79403 37.0667 7.79403 36.5333V11.5333H32.594C32.7274 11.0667 33.0607 10.6667 33.4607 10.4C33.794 10.2 34.1274 9.93332 34.4607 9.66665H7.86068V4.99998C7.86068 4.46665 7.4607 4.06665 6.92737 4.06665C3.32737 4.06665 0.460693 6.99998 0.460693 10.5333V42.0666C0.460693 45.6666 3.39404 48.5333 6.92737 48.5333H29.5273C29.4607 48.6 29.4607 48.6 29.4607 48.5333ZM2.19401 10.6C2.19401 8.33332 3.79404 6.46665 5.92737 6.06665V35.7333C4.4607 35.9333 3.19401 36.6 2.19401 37.6V10.6Z" fill="#E3AB50"/>
<path d="M48.3274 29.5333C48.3941 29.3333 48.4607 29.1333 48.5274 28.9333C48.7941 28.0666 49.4607 27.6666 50.1941 27.6V10.6C50.1941 10.0666 49.7941 9.66663 49.2607 9.66663H41.9941C41.9274 10.3333 41.594 10.9333 41.0607 11.2C40.8607 11.3333 40.594 11.4 40.394 11.5333H48.3274V29.5333Z" fill="#E3AB50"/>
<path d="M36.7274 30.2667H13.2607V31.6001H36.7274V30.2667Z" fill="#E3AB50"/>
<path d="M21.7941 20.9333C21.7275 20.9333 21.7275 20.9333 21.7941 20.9333C21.6608 21.0667 21.6608 21.1333 21.5941 21.2C21.2608 21.7333 20.5275 23.2 18.2608 27.4C17.7941 28.1333 17.7941 28.9333 18.3274 29.4C18.7274 29.8 19.3941 30 20.2608 29.4667C24.5941 27.2 26.0608 26.4 26.5941 26.0667C26.6608 26 26.7275 26 26.7941 25.9333L26.8608 25.8667L46.8608 5.86667C47.4608 5.26667 47.6608 4.66667 47.6608 4.33333C47.7274 3.93333 47.5941 3.53333 47.3274 3.26667L44.3941 0.333333C44.1941 0.133333 43.8608 0 43.5274 0C43.4608 0 43.4608 0 43.3941 0C42.8608 0.0666667 42.3274 0.333333 41.8608 0.866667L21.7941 20.9333ZM24.0608 25.2667C23.3274 25.6667 22.3941 26.1333 21.5274 26.6L20.5941 27.1333L21.1275 26.2C21.5941 25.2667 22.1275 24.4 22.4608 23.6667L22.6608 23.2667L24.4608 25.0667L24.0608 25.2667ZM45.5274 4.46667L26.1275 23.8667L23.7941 21.5333L43.1941 2.13333L45.5274 4.46667Z" fill="#E3AB50"/>
<path d="M46.7275 37.3333C46.5275 37.2667 46.2608 37.2667 46.0608 37.4667L37.3275 46.2667C37.1275 46.4667 37.1275 46.6667 37.1942 46.9333C37.2608 47.1333 37.5275 47.3333 37.7275 47.3333H46.3942C46.7942 47.3333 47.1275 47 47.1275 46.6V37.9333C47.1275 37.6667 46.9942 37.4667 46.7275 37.3333ZM46.0608 38.8667V46.2H38.7275L46.0608 38.8667Z" fill="#E3AB50"/>
<path d="M52.994 24.7999C52.594 24.6666 52.194 24.7333 51.9273 24.9999L24.794 52.1333C24.5273 52.3999 24.4607 52.7999 24.594 53.1333C24.7273 53.4666 25.0607 53.7333 25.4607 53.7333H52.2607C52.994 53.7333 53.6607 53.1333 53.6607 52.3333V25.6666C53.594 25.2666 53.3273 24.9333 52.994 24.7999ZM52.194 52.3999H26.3273L52.194 26.5333V34.5333H49.3273V35.6666H52.194V38.5333H49.3273V39.5999H52.194V42.4666H49.3273V43.5999H52.194V46.3999H49.3273V47.5333H52.194V52.3999C52.2607 52.3999 52.2607 52.3999 52.194 52.3999Z" fill="#E3AB50"/>
</svg>
