<svg width="59" height="52" viewBox="0 0 59 52" fill="none" xmlns="http://www.w3.org/2000/svg">
<path d="M33.2607 45.4667H3.39402V16.4H45.2607V25.2C45.2607 26 45.8607 26.6 46.6607 26.6C47.4607 26.6 48.0607 26 48.0607 25.2V6.86667C48.0607 6.06667 47.4607 5.46667 46.6607 5.46667H40.3274V2.2C40.3274 1 39.3273 0 38.1273 0C36.9273 0 35.9273 1 35.9273 2.2V5.46667H26.4607V2.2C26.4607 1 25.4607 0 24.2607 0C23.0607 0 22.0607 1 22.0607 2.2V5.46667H12.594V2.2C12.594 1 11.594 0 10.394 0C9.19402 0 8.19403 1 8.19403 2.2V5.46667H1.8607C1.0607 5.46667 0.460693 6.06667 0.460693 6.86667V46.8C0.460693 47.6 1.0607 48.2 1.8607 48.2H33.1274C33.9274 48.2 34.5274 47.6 34.5274 46.8C34.5274 46 34.0607 45.4667 33.2607 45.4667ZM8.39402 8.26667V9.46667C8.39402 10.6667 9.39401 11.6667 10.594 11.6667C11.794 11.6667 12.794 10.6667 12.794 9.46667V8.26667H22.2607V9.46667C22.2607 10.6667 23.2607 11.6667 24.4607 11.6667C25.6607 11.6667 26.6607 10.6667 26.6607 9.46667V8.26667H36.1274V9.46667C36.1274 10.6667 37.1274 11.6667 38.3274 11.6667C39.5274 11.6667 40.5274 10.6667 40.5274 9.46667V8.26667H45.4607V13.6H3.59401V8.26667H8.39402Z" fill="#0E2043"/>
<path d="M46.6605 28.3999C40.2605 28.3999 35.1272 33.5999 35.1272 39.9332C35.1272 46.3332 40.3272 51.4666 46.6605 51.4666C52.9939 51.4666 58.1939 46.2666 58.1939 39.9332C58.2605 33.5999 53.0605 28.3999 46.6605 28.3999ZM46.6605 48.7332C41.8605 48.7332 37.9272 44.7999 37.9272 39.9999C37.9272 35.1999 41.8605 31.2666 46.6605 31.2666C51.4605 31.2666 55.3939 35.1999 55.3939 39.9999C55.4605 44.7999 51.5272 48.7332 46.6605 48.7332Z" fill="#0E2043"/>
<path d="M48.1939 39.6666C48.1272 39.5999 47.7272 39.3999 47.0605 39.2666V36.7999H47.1272C47.3939 36.8666 47.5939 36.9999 47.7939 37.1333C48.0605 37.3333 48.2605 37.6666 48.2605 37.9999C48.2605 38.2666 48.4605 38.4666 48.7272 38.4666C48.9939 38.4666 49.1939 38.2666 49.1939 37.9333C49.1939 37.3333 48.8605 36.7333 48.3939 36.3333C48.0605 36.0666 47.5939 35.8666 47.1272 35.7999V35.1999C47.1272 34.9333 46.9272 34.7333 46.6606 34.7333C46.3939 34.7333 46.1939 34.9333 46.1939 35.2666V35.8666C45.7272 35.9333 45.2605 36.1999 44.9272 36.4666C44.3939 36.9333 44.1272 37.4666 44.1939 38.1333C44.1939 38.7333 44.4606 39.3333 44.9939 39.7333C45.2606 39.9999 45.6605 40.1333 46.2605 40.1999V43.1999H46.1939C45.8606 43.0666 45.5272 42.9333 45.3272 42.6666C45.1272 42.3999 44.9939 42.1333 44.9939 41.7999C44.9939 41.5333 44.7939 41.3333 44.5272 41.3333C44.3939 41.3333 44.2606 41.3999 44.1939 41.4666C44.1272 41.5333 44.0605 41.6666 44.0605 41.7999C44.0605 42.1333 44.1272 42.4666 44.3272 42.7999C44.4606 43.0666 44.7272 43.3333 44.9939 43.5999C45.3272 43.8666 45.7939 44.1333 46.2605 44.1999V44.7999C46.2605 45.0666 46.4605 45.2666 46.7272 45.2666C46.8605 45.2666 46.9939 45.1999 47.0605 45.1333C47.1272 45.0666 47.1939 44.9333 47.1939 44.7999V44.1999C47.7939 44.1333 48.3939 43.8666 48.7939 43.4666C49.0605 43.2666 49.2605 42.9999 49.3939 42.6666C49.5272 42.3333 49.5939 41.9999 49.5939 41.6666C49.5272 40.8666 48.9939 40.0666 48.1939 39.6666ZM47.0605 43.1999V40.2666H47.1272C47.5272 40.3999 47.7272 40.4666 47.7939 40.5333C48.2605 40.7999 48.5939 41.2666 48.5939 41.7333C48.5272 42.3999 47.9272 42.9999 47.0605 43.1999ZM46.0605 36.7999V39.1333H45.9939C45.7272 39.0666 45.5272 38.9999 45.3939 38.8666C45.1272 38.6666 44.9939 38.3333 44.9939 37.9999C44.9939 37.6666 45.1272 37.3333 45.3939 37.1333C45.5939 36.9999 45.7939 36.8666 46.0605 36.7999Z" fill="#0E2043"/>
<path d="M16.9274 27.4001H13.9941V35.3334H11.9941V27.4001H9.12744V25.8H16.9274V27.4001Z" fill="#0E2043"/>
<path d="M22.6609 33.4H19.1943L18.5276 35.4H16.4609L19.9943 25.8667H21.7943L25.3943 35.4H23.3276L22.6609 33.4ZM19.7276 31.8H22.1276L20.9276 28.2L19.7276 31.8Z" fill="#0E2043"/>
<path d="M29.7276 29.0667L31.5276 25.8H33.7943L30.9942 30.5334L33.8609 35.3334H31.5942L29.7276 32L27.8609 35.3334H25.5942L28.4609 30.5334L25.6609 25.8H27.9276L29.7276 29.0667Z" fill="#0E2043"/>
</svg>
