<svg width="55" height="53" viewBox="0 0 55 53" fill="none" xmlns="http://www.w3.org/2000/svg">
<path d="M53.994 6.95959C53.8607 6.62626 53.5274 6.35959 53.194 6.22626L35.994 0.0929252C35.594 -0.0404082 35.194 -0.0404082 34.8607 0.159592C34.5274 0.359592 34.2607 0.626259 34.1274 1.02626L30.4607 12.4263C30.4607 12.4929 30.394 12.6263 30.394 12.6929C30.8607 12.6929 31.394 12.8929 31.7274 13.2263V12.8263C31.7274 12.8263 31.7274 12.8263 31.7274 12.7596L35.394 1.35959C35.394 1.35959 35.394 1.29292 35.4607 1.29292H35.5274L52.7274 7.49293L52.794 7.55959V7.62626L39.794 43.2929L39.7274 43.3596H39.6607L32.5274 40.6929C32.4607 40.6929 32.4607 40.6263 32.4607 40.5596V39.7596C32.3274 40.4929 32.194 41.2263 32.2607 41.9596L39.1274 44.5596C39.2607 44.6263 39.4607 44.6263 39.6607 44.6263C39.8607 44.6263 40.0607 44.5596 40.2607 44.4929C40.594 44.3596 40.8607 44.0263 40.994 43.6929L54.0607 8.09292C54.194 7.75959 54.194 7.35959 53.994 6.95959Z" fill="#E3AB50"/>
<path d="M36.0606 22.5596L35.7272 22.4929C35.6606 22.4929 35.5939 22.4929 35.5939 22.4929L31.9939 22.6929V23.2929L35.2606 23.1596L33.5939 27.8929C33.4606 28.2263 33.3939 28.7596 33.3939 29.2929L31.9272 29.6263V30.1596L33.9939 29.6929V29.4263C33.9939 28.8929 34.0606 28.2263 34.1272 27.9596L36.0606 22.5596Z" fill="#E3AB50"/>
<path d="M44.1942 26.3595L43.4608 25.6262L43.7275 24.8929C43.9275 24.4262 43.6608 23.8929 43.1275 23.6929C42.6608 23.5595 42.1942 23.7595 41.9942 24.1595L41.1275 23.2929L41.3942 22.4929C41.4608 22.2262 41.4608 22.0262 41.3275 21.7595C41.1942 21.5595 41.0608 21.3595 40.7942 21.2929C40.5275 21.2262 40.3275 21.2262 40.0608 21.3595C39.8608 21.4262 39.7275 21.6262 39.6608 21.7595L38.9275 21.0262L39.8608 18.2929C39.9942 17.9595 39.9942 17.4262 39.9275 16.8929C39.8608 16.2929 39.5942 15.8262 39.1942 15.6929C38.7942 15.5595 38.3275 15.7595 37.9275 16.1595C37.5942 16.4929 37.2608 16.9595 37.1275 17.2929L36.1942 20.0262L35.2608 20.1595C35.3275 19.9595 35.2608 19.7595 35.1942 19.5595C35.0608 19.3595 34.9275 19.1595 34.6608 19.0929C34.3942 19.0262 34.1942 19.0262 33.9275 19.1595C33.7275 19.2929 33.5275 19.4262 33.4608 19.6929L33.1942 20.4929L31.9275 20.6262V21.2262L33.5942 21.0262L33.9942 19.8929C33.9942 19.8262 34.0608 19.7595 34.1942 19.6929C34.2608 19.6262 34.3942 19.6262 34.4608 19.6929C34.5275 19.6929 34.5942 19.7595 34.6608 19.8929C34.7275 19.9595 34.7275 20.0929 34.6608 20.1595L34.3942 20.9595L36.5275 20.6929H36.7942L37.7942 17.4929C37.8608 17.2262 38.1275 16.8929 38.3942 16.6262C38.6608 16.3595 38.9275 16.2262 39.0608 16.2929C39.1942 16.3595 39.3275 16.6262 39.3942 16.9595C39.4608 17.3595 39.3942 17.7595 39.3275 18.0262L38.3275 20.9595L38.2608 21.2262L38.4608 21.3595L39.9275 22.8929L40.1942 22.0929C40.1942 22.0262 40.2608 21.9595 40.3942 21.8929C40.4608 21.8262 40.5942 21.8262 40.6608 21.8929C40.7275 21.8929 40.7942 21.9595 40.8608 22.0929C40.9275 22.1595 40.9275 22.2929 40.8608 22.3595L40.4608 23.4929L42.2608 25.3595L42.5275 24.5595C42.5942 24.3595 42.7942 24.2929 42.9275 24.3595C43.1275 24.4262 43.1942 24.6262 43.1275 24.7595L42.7275 25.8929L43.6608 26.8929C43.7275 26.9595 43.7275 27.0262 43.7275 27.0929L43.3942 27.9595C43.3942 28.0262 43.2608 28.0929 43.2608 28.0929C43.2608 28.0929 43.1275 28.0929 43.0608 28.0262L37.9275 23.4929C37.8608 23.4262 37.8608 23.4262 37.7942 23.4262L37.4608 23.2262L35.5275 28.6929C35.4608 28.9595 35.1275 29.4929 34.7275 29.8929L34.5275 30.0929L36.4608 32.4929L36.3275 32.7595L34.4608 30.8262C34.3942 30.7595 34.3275 30.7595 34.2608 30.6929L33.7942 30.3595C33.7275 30.3595 33.6608 30.3595 33.5942 30.3595H33.5275L31.9275 30.5595V31.1595L33.5942 30.9595L34.3275 31.2262L36.2608 33.2262C36.3275 33.2929 36.4608 33.3595 36.5942 33.3595C36.6608 33.3595 36.6608 33.3595 36.7275 33.3595C36.9275 33.2929 37.0608 33.2262 37.0608 33.0262L37.2608 32.5595C37.3275 32.4262 37.2608 32.2262 37.1942 32.0929L35.5275 30.0929C35.8608 29.6929 36.1275 29.2262 36.2608 28.8929L37.9275 24.1595L42.7942 28.4929C42.9942 28.6929 43.2608 28.7595 43.5275 28.6929C43.7942 28.6262 43.9942 28.4262 44.0608 28.1595L44.3942 27.2929C44.5275 26.8929 44.3942 26.5595 44.1942 26.3595Z" fill="#E3AB50"/>
<path d="M24.8605 46.2928H8.06055V47.2262H24.8605V46.2928Z" fill="#E3AB50"/>
<path d="M24.8605 16.9596H8.06055V17.8929H24.8605V16.9596Z" fill="#E3AB50"/>
<path d="M22.7941 43.3596H10.1941V44.2929H22.7941V43.3596Z" fill="#E3AB50"/>
<path d="M29.0607 11.4263H28.8607V9.2263C28.8607 8.29296 28.4607 7.49296 27.794 6.95963C27.1274 6.4263 26.2607 6.2263 25.3274 6.4263L3.46069 11.4263C1.79403 11.6263 0.460693 13.093 0.460693 14.8263V49.3596C0.460693 51.2263 1.99403 52.7596 3.86069 52.7596H28.994C30.8607 52.7596 32.394 51.2263 32.394 49.3596V14.8263C32.4607 12.9596 30.9274 11.4263 29.0607 11.4263ZM25.6607 7.75963C26.194 7.6263 26.594 7.75963 26.994 8.0263C27.3274 8.29296 27.5274 8.75963 27.5274 9.2263V11.4263H9.72736L25.6607 7.75963ZM31.0607 49.3596C31.0607 50.493 30.1274 51.4263 28.994 51.4263H3.86069C2.72736 51.4263 1.79403 50.493 1.79403 49.3596V14.8263C1.79403 13.9596 2.32736 13.2263 3.12736 12.893L3.66069 12.7596C3.72736 12.7596 3.79403 12.7596 3.86069 12.7596H28.994C30.1274 12.7596 31.0607 13.693 31.0607 14.8263V49.3596V49.3596Z" fill="#E3AB50"/>
<path d="M16.4607 21.9596C11.594 21.9596 7.59399 25.8929 7.59399 30.8263C7.59399 35.7596 11.594 39.6929 16.4607 39.6929C21.3273 39.6929 25.3273 35.6929 25.3273 30.8263C25.3273 25.9596 21.3273 21.9596 16.4607 21.9596ZM16.9273 27.5596C17.9273 27.5596 18.9273 27.4263 19.794 27.2263C20.0607 28.1596 20.194 29.2263 20.194 30.3596H16.8607V27.5596H16.9273ZM16.9273 26.6263V22.8929C17.994 23.1596 18.994 24.4929 19.594 26.2929C18.7273 26.4929 17.8607 26.6263 16.9273 26.6263ZM15.994 22.9596V26.6929C15.0607 26.6929 14.194 26.5596 13.3273 26.3596C13.994 24.5596 14.9273 23.2263 15.994 22.9596ZM15.994 27.5596V30.3596H12.6607C12.6607 29.2263 12.8607 28.1596 13.0607 27.2263C13.994 27.4263 14.994 27.5596 15.994 27.5596ZM11.794 30.3596H8.59399C8.66066 28.7596 9.26066 27.3596 10.1273 26.1596C10.794 26.4929 11.4607 26.8263 12.2607 27.0263C11.9273 28.0263 11.794 29.1596 11.794 30.3596ZM11.794 31.2929C11.794 32.4929 11.994 33.6929 12.2607 34.6929C11.4607 34.8929 10.794 35.2263 10.1273 35.5596C9.19399 34.3596 8.66066 32.8929 8.59399 31.2929H11.794ZM12.6607 31.2929H15.994V34.1596C14.994 34.1596 13.994 34.2929 13.1273 34.4929C12.8607 33.4929 12.7273 32.4263 12.6607 31.2929ZM15.994 35.0263V38.6929C14.9273 38.4263 13.994 37.1596 13.394 35.3596C14.194 35.1596 15.0607 35.0929 15.994 35.0263ZM16.9273 38.6929V35.0263C17.8607 35.0263 18.7273 35.1596 19.5273 35.3596C18.9273 37.1596 17.994 38.4263 16.9273 38.6929ZM16.9273 34.1596V31.2929H20.2607C20.2607 32.4263 20.0607 33.4929 19.794 34.4929C18.8607 34.2929 17.9273 34.1596 16.9273 34.1596ZM21.1273 31.2929H24.3273C24.2607 32.8929 23.6607 34.3596 22.794 35.5596C22.1273 35.2263 21.4607 34.9596 20.6607 34.6929C20.9273 33.6263 21.1273 32.4929 21.1273 31.2929ZM21.1273 30.3596C21.1273 29.1596 20.9273 28.0263 20.6607 26.9596C21.4607 26.7596 22.194 26.4263 22.794 26.0929C23.6607 27.2929 24.2607 28.7596 24.3273 30.2929H21.1273V30.3596ZM22.2607 25.4263C21.7273 25.6929 21.1273 25.9596 20.4607 26.1596C20.2607 25.6263 20.1273 25.1596 19.8607 24.6929C19.594 24.1596 19.2607 23.6929 18.9273 23.2929C20.194 23.6929 21.3273 24.4929 22.2607 25.4263ZM13.994 23.2929C13.6607 23.6929 13.3273 24.1596 13.0607 24.6929C12.8607 25.1596 12.6607 25.6263 12.4607 26.1596C11.794 25.9596 11.194 25.7596 10.6607 25.4263C11.5273 24.4929 12.6607 23.6929 13.994 23.2929ZM10.7273 36.2929C11.2607 36.0263 11.8607 35.7596 12.5273 35.6263C12.6607 36.0929 12.8607 36.5596 13.1273 37.0263C13.394 37.5596 13.7273 38.0263 14.0607 38.4263C12.7273 37.9596 11.594 37.2263 10.7273 36.2929ZM18.9273 38.3596C19.2607 37.9596 19.594 37.4929 19.8607 36.9596C20.0607 36.5596 20.2607 36.0929 20.4607 35.5596C21.1273 35.7596 21.7273 35.9596 22.2607 36.2263C21.3273 37.2263 20.194 37.9596 18.9273 38.3596Z" fill="#E3AB50"/>
<path d="M36.2607 9.75955C36.7025 9.75955 37.0607 9.40137 37.0607 8.95955C37.0607 8.51772 36.7025 8.15955 36.2607 8.15955C35.8189 8.15955 35.4607 8.51772 35.4607 8.95955C35.4607 9.40137 35.8189 9.75955 36.2607 9.75955Z" fill="#E3AB50"/>
<path d="M39.1274 10.7595C39.5692 10.7595 39.9274 10.4014 39.9274 9.95955C39.9274 9.51772 39.5692 9.15955 39.1274 9.15955C38.6856 9.15955 38.3274 9.51772 38.3274 9.95955C38.3274 10.4014 38.6856 10.7595 39.1274 10.7595Z" fill="#E3AB50"/>
<path d="M41.9941 11.7595C42.4359 11.7595 42.7941 11.4014 42.7941 10.9595C42.7941 10.5177 42.4359 10.1595 41.9941 10.1595C41.5523 10.1595 41.1941 10.5177 41.1941 10.9595C41.1941 11.4014 41.5523 11.7595 41.9941 11.7595Z" fill="#E3AB50"/>
<path d="M44.7941 12.7595C45.236 12.7595 45.5941 12.4014 45.5941 11.9595C45.5941 11.5177 45.236 11.1595 44.7941 11.1595C44.3523 11.1595 43.9941 11.5177 43.9941 11.9595C43.9941 12.4014 44.3523 12.7595 44.7941 12.7595Z" fill="#E3AB50"/>
<path d="M47.6608 13.7595C48.1027 13.7595 48.4608 13.4014 48.4608 12.9595C48.4608 12.5177 48.1027 12.1595 47.6608 12.1595C47.219 12.1595 46.8608 12.5177 46.8608 12.9595C46.8608 13.4014 47.219 13.7595 47.6608 13.7595Z" fill="#E3AB50"/>
</svg>
